<svg xmlns="http://www.w3.org/2000/svg" viewBox="0 0 980 430"><defs><marker id="ah" markerWidth="10" markerHeight="10" refX="7.5" refY="5" orient="auto"><path d="M0,0 L10,5 L0,10 z" fill="#ED7D31"/></marker></defs><text x="490" y="26" font-size="16" fill="#1F3864" text-anchor="middle" font-weight="700" font-family="Inter,Arial,sans-serif">Mô hình giá — neo $5/giờ ego × độ khó × value-add</text><rect x="40" y="50" width="220" height="60" rx="12" fill="#2E7D32"/><text x="150" y="78" font-size="13" fill="#fff" text-anchor="middle" font-weight="700" font-family="Inter,Arial,sans-serif">NEO: Egocentric RAW</text><text x="150" y="98" font-size="15" fill="#fff" text-anchor="middle" font-weight="700" font-family="Inter,Arial,sans-serif">$5 / giờ</text><line x1="260" y1="80" x2="360" y2="82" stroke="#ED7D31" stroke-width="2.5" marker-end="url(#ah)"/><rect x="360" y="60" width="230" height="44" rx="10" fill="#2E5496"/><text x="475" y="88" font-size="13" fill="#fff" text-anchor="middle" font-weight="700" font-family="Inter,Arial,sans-serif">UMI ×3–4</text><line x1="260" y1="80" x2="360" y2="146" stroke="#ED7D31" stroke-width="2.5" marker-end="url(#ah)"/><rect x="360" y="124" width="230" height="44" rx="10" fill="#7A6CC4"/><text x="475" y="152" font-size="13" fill="#fff" text-anchor="middle" font-weight="700" font-family="Inter,Arial,sans-serif">Teleop ×8–12</text><line x1="260" y1="80" x2="360" y2="210" stroke="#ED7D31" stroke-width="2.5" marker-end="url(#ah)"/><rect x="360" y="188" width="230" height="44" rx="10" fill="#C0392B"/><text x="475" y="216" font-size="13" fill="#fff" text-anchor="middle" font-weight="700" font-family="Inter,Arial,sans-serif">Dexterous/mocap ×20–36</text><text x="360" y="260" font-size="12" fill="#888" text-anchor="start" font-weight="700" font-family="Inter,Arial,sans-serif">× HỆ SỐ ĐỘ KHÓ (so với ego)</text><rect x="40" y="300" width="200" height="64" rx="12" fill="#8895aa"/><text x="140" y="328" font-size="14" fill="#fff" text-anchor="middle" font-weight="700" font-family="Inter,Arial,sans-serif">RAW</text><text x="140" y="350" font-size="13" fill="#eef" text-anchor="middle" font-weight="600" font-family="Inter,Arial,sans-serif">×1</text><line x1="240" y1="332" x2="270" y2="332" stroke="#ED7D31" stroke-width="3" marker-end="url(#ah)"/><rect x="270" y="300" width="200" height="64" rx="12" fill="#2E5496"/><text x="370" y="328" font-size="14" fill="#fff" text-anchor="middle" font-weight="700" font-family="Inter,Arial,sans-serif">+SENSOR</text><text x="370" y="350" font-size="13" fill="#eef" text-anchor="middle" font-weight="600" font-family="Inter,Arial,sans-serif">×1,6</text><line x1="470" y1="332" x2="500" y2="332" stroke="#ED7D31" stroke-width="3" marker-end="url(#ah)"/><rect x="500" y="300" width="200" height="64" rx="12" fill="#7A6CC4"/><text x="600" y="328" font-size="14" fill="#fff" text-anchor="middle" font-weight="700" font-family="Inter,Arial,sans-serif">+LABEL</text><text x="600" y="350" font-size="13" fill="#eef" text-anchor="middle" font-weight="600" font-family="Inter,Arial,sans-serif">×2,2</text><line x1="700" y1="332" x2="730" y2="332" stroke="#ED7D31" stroke-width="3" marker-end="url(#ah)"/><rect x="730" y="300" width="200" height="64" rx="12" fill="#2E7D32"/><text x="830" y="328" font-size="14" fill="#fff" text-anchor="middle" font-weight="700" font-family="Inter,Arial,sans-serif">+VERIFIED</text><text x="830" y="350" font-size="13" fill="#eef" text-anchor="middle" font-weight="600" font-family="Inter,Arial,sans-serif">×3–4</text><text x="40" y="290" font-size="12" fill="#888" text-anchor="start" font-weight="700" font-family="Inter,Arial,sans-serif">THANG GIÁ TRỊ GIA TĂNG (× trên raw):</text><text x="490" y="400" font-size="12.5" fill="#C0392B" text-anchor="middle" font-weight="700" font-family="Inter,Arial,sans-serif">VD ego: $5 raw → ~$15–20/giờ verified. KHÔNG bán raw (bẫy biên).</text></svg>